<svg width="50" height="55" viewBox="0 0 81 65" fill="none" xmlns="http://www.w3.org/2000/svg">
<path d="M14.9394 55.252L9.25424 4.0625H71.7457L66.053 55.2439L40.462 60.9375L14.9394 55.252Z" fill="#1572B6"/>
<path d="M40.5 56.5866L61.1803 51.9858L66.0454 8.2489H40.5V56.5866Z" fill="#33A9DC"/>
<path d="M40.5 26.7942H50.8528L51.5666 20.3653H40.5V14.0867H40.5278H60.1172L59.9299 15.7706L58.0087 33.0728H40.5V26.7942Z" fill="white"/>
<path d="M40.5481 43.0991L40.5127 43.1072L31.8001 41.2181L31.2432 36.2111H27.0085H23.3888L24.4848 46.0687L40.5101 49.6397L40.5481 49.6316V43.0991Z" fill="#EBEBEB"/>
<path d="M50.1871 32.8067L49.2455 41.2141L40.5203 43.1031V49.6356L56.5583 46.0688L56.6772 45.0084L58.0365 32.8067H50.1871Z" fill="white"/>
<path d="M40.5278 14.0867V17.9867V20.3491V20.3653H21.6548H21.6295L21.4726 18.9536L21.1157 15.7706L20.9284 14.0867H40.5278Z" fill="#EBEBEB"/>
<path d="M40.5 26.7942V30.6942V33.0566V33.0728H31.9216H31.8963L31.7393 31.6611L31.385 28.4781L31.1977 26.7942H40.5Z" fill="#EBEBEB"/>
</svg>
