<svg width="41" height="34" viewBox="0 0 41 34" fill="none" xmlns="http://www.w3.org/2000/svg">
<path d="M40.4767 9.01999L30.9433 16.6733V33.38H37.6167C39.1767 33.38 40.4767 32.0267 40.4767 30.3V9.01999Z" fill="#4CAF50"/>
<path d="M0.523331 9.01999L10.0133 16.72V33.4267H3.38333C1.82333 33.4267 0.523331 32.0733 0.523331 30.3467V9.01999Z" fill="#1E88E5"/>
<path d="M30.9433 3.88666L20.5 12.3333L10.0567 3.88666V16.6733L20.5 25.12L30.9433 16.6733V3.88666Z" fill="#E53935"/>
<path d="M0.523331 5.00666V9.02L10.0133 16.72V3.88666L7.06666 1.50666C6.37333 0.946661 5.50666 0.619995 4.59666 0.619995C2.34333 0.619995 0.523331 2.57999 0.523331 5.00666Z" fill="#C62828"/>
<path d="M40.4767 5.00666V9.01999L30.9433 16.6733V3.88666L33.9333 1.50666C34.6267 0.946661 35.4933 0.619995 36.4033 0.619995C38.6567 0.619995 40.4767 2.57999 40.4767 5.00666Z" fill="#FBC02D"/>
</svg>
