<svg width="50" height="45" viewBox="0 0 85 81" fill="none" xmlns="http://www.w3.org/2000/svg">
<path d="M13.5803 35.6632C10.7761 36.7478 3.35387 41.6301 1.92434 43.0766C0.439739 44.5232 2.76305e-05 42.263 1.53942 38.511C2.74869 35.4823 5.82802 31.3685 10.996 27.8427C14.0198 25.8084 20.6727 22.8703 24.741 21.1523C25.5659 20.7905 36.2321 17.0838 45.7437 15.2304C46.5686 15.0496 44.7542 16.3605 44.4791 17.0838C43.0496 20.5193 14.5145 35.2561 14.5145 35.2561L13.5803 35.6632ZM53.7708 77.1159C54.2656 79.5569 53.8259 79.7378 50.7471 80.0543C47.668 80.3707 45.4139 79.4213 44.5893 78.7886C43.7644 78.1554 43.5997 76.7543 44.4243 75.4887C44.9194 74.6748 45.4142 74.4036 45.6892 73.4091C45.964 72.4599 46.184 72.2338 46.4037 71.8723C46.6234 71.5556 46.6788 71.2391 46.7336 69.0242C46.7886 66.8093 46.7336 62.6503 47.0086 60.8874C47.2837 59.0794 56.7954 61.701 56.7954 61.701C56.7954 61.701 54.5409 66.3119 53.9363 67.442C53.3314 68.5723 53.3864 70.7419 53.3864 71.194C53.3864 71.6461 53.1667 72.55 53.0015 72.5953C52.8366 72.6404 53.5514 73.8157 53.2213 74.4939C53.0013 75.1269 53.716 76.7543 53.7708 77.1159V77.1159ZM57.3997 7.99763C57.0696 6.27986 57.3997 2.88916 57.8394 2.34698C59.2142 0.809872 66.4714 0.629218 68.0111 2.43731C68.6708 3.25092 68.6157 5.14956 68.5059 6.37019C68.396 7.5906 68.0111 10.2125 67.956 11.0716C67.9012 11.7046 59.9289 12.6988 58.1696 10.9811C57.6745 10.5292 57.3997 7.99763 57.3997 7.99763V7.99763ZM73.564 72.7309C76.9179 74.7201 79.5019 75.0816 81.2062 75.8049C82.9105 76.5284 82.4708 77.9297 79.6117 78.3365C77.3025 78.698 73.6739 77.9747 71.2548 77.9747C68.8357 77.9747 63.4474 78.2009 62.0179 77.3873C60.3686 76.4381 61.0831 74.6748 61.0831 74.6748C61.5231 73.6806 62.6225 71.4652 62.2927 69.6571C61.9628 67.849 61.5229 66.8546 60.6982 65.1819C59.8736 63.5094 59.269 59.3958 60.0388 59.1697C60.8086 58.9435 60.5884 59.1697 61.5782 59.3503C62.5677 59.531 63.6674 59.8024 65.8117 59.8024C67.956 59.8024 70.32 59.531 71.1449 59.3956C71.9696 59.26 72.6293 59.1242 72.3542 60.5257C72.0794 61.927 71.2548 64.5489 71.1997 66.5831C71.1449 68.6174 71.1449 70.9681 71.3099 71.3749C71.4745 71.7817 72.6843 72.2338 73.564 72.7309V72.7309Z" fill="#010101"/>
<path d="M61.7982 12.5182C55.7505 16.8128 44.0394 17.988 26.6658 23.503C22.2123 24.9043 10.3366 29.1084 7.47754 33.4933C17.0991 28.9277 20.6729 35.2111 21.4425 41.6754C22.157 47.7328 25.8409 50.8974 35.2976 50.7163C45.0292 50.5356 47.9982 55.1915 50.692 60.6615C55.9151 39.7314 64.2723 35.6632 69.6601 32.0921C81.0963 24.4522 67.0213 10.9811 61.7982 12.5182Z" fill="#8AC640"/>
<path d="M61.7982 12.5182C47.2834 16.677 32.9333 17.7168 16.0545 26.2605C12.0409 28.2948 3.57384 32.9054 1.92432 41.7206C8.08189 36.115 22.3219 29.0633 39.7508 24.588C48.5477 22.3277 54.9806 20.836 62.7877 18.3497C62.2381 15.4564 62.2381 14.3263 61.7982 12.5182V12.5182Z" fill="#8AC640"/>
<path d="M80.3265 37.2904C80.3265 37.2904 79.2819 40.2288 77.1926 41.1782C77.1926 41.1782 75.6532 41.6303 72.5744 40.229C71.6948 39.8222 71.0351 38.4209 71.0899 37.9686C71.1449 36.8836 71.9695 36.3865 71.9695 36.3865C71.9695 36.3865 72.8495 35.1658 73.8939 35.2111C74.9387 35.2562 76.6981 35.3918 77.248 34.9849C77.7425 34.5329 80.4366 35.7986 80.3265 37.2904V37.2904ZM57.8945 8.85652C57.8945 8.85652 57.6748 11.1622 57.2898 12.6085C57.2348 12.8799 55.5855 13.0153 54.3757 13.4224C56.6849 18.8468 70.5951 18.8016 72.4095 16.1346C71.5298 15.6375 69.7704 14.8689 68.9458 14.5977C68.1209 14.3263 68.176 14.3716 68.1209 13.1059C68.0661 11.84 67.956 9.48947 67.8459 8.85652C67.736 8.22357 59.2139 8.22357 57.8945 8.85652Z" fill="#010101"/>
<path d="M58.4443 8.85652C58.4443 8.85652 58.4443 10.1675 58.2794 11.4332C58.2246 12.0208 58.1695 12.3824 58.0597 12.8345C58.0046 13.1059 59.9289 14.1905 60.4787 16.5865C63.1178 21.4233 69.2209 19.0275 71.7498 16.7221C70.8701 16.2247 69.4406 15.5467 67.7913 15.0043C66.9664 14.7329 67.3514 14.1454 67.2966 12.8797C67.2415 11.614 67.0215 9.76046 66.9116 9.08245C66.8012 8.40445 59.764 8.22357 58.4443 8.85652V8.85652Z" fill="#F0EFEF"/>
<path d="M57.8945 8.85652C57.8945 8.85652 57.8394 9.67035 57.6747 10.6196C58.3892 11.207 59.324 12.0208 60.039 12.5182C60.5338 12.8799 61.7431 12.8347 62.843 12.8347C63.8326 12.8347 64.7123 12.925 65.0972 12.7443C65.9772 12.3826 67.2415 11.4787 67.9563 10.8004C67.9015 9.98683 67.8464 9.21827 67.7916 8.85652C67.736 8.22357 59.2139 8.22357 57.8945 8.85652V8.85652Z" fill="#010101"/>
<path d="M62.8978 12.292C62.2379 12.292 61.468 12.247 60.8634 12.1564C60.5883 12.1114 60.3135 11.9758 60.0936 11.8852C59.7086 11.6591 59.3237 11.3881 58.8843 11.1167C58.0043 10.5743 57.9495 10.2578 57.9495 10.1224C58.3344 7.27436 57.8394 4.87859 57.8394 4.87859C57.8394 4.87859 57.4545 3.65796 59.5437 3.34148C61.633 3.025 62.8976 2.97995 62.8976 2.97995C62.8976 2.97995 64.2172 2.97995 66.2514 3.34148C68.3406 3.65796 67.9557 4.87859 67.9557 4.87859C67.9557 4.87859 67.4609 7.27436 67.8459 10.1224C67.8459 10.2578 67.7911 10.5743 66.9111 11.1167C66.1413 11.5688 65.5366 12.0659 64.932 12.1564C64.3271 12.247 63.5573 12.292 62.8978 12.292V12.292Z" fill="#010101"/>
<path d="M62.8978 1.8046C59.2692 1.8046 58.5542 2.6182 57.5096 3.52236C57.2898 3.74829 57.4545 5.10452 57.8397 7.99764H58.3345C58.3345 7.99764 58.0043 7.18382 58.0594 6.23461C58.1145 5.2854 58.3345 5.33067 58.1693 5.10452C57.9495 4.8331 57.5096 4.38102 58.4994 3.92916C59.4889 3.47709 61.0283 4.29069 62.8978 4.33597C64.7671 4.29069 66.3615 3.47709 67.3511 3.92916C68.3406 4.38102 67.9009 4.8331 67.6812 5.10452C67.4612 5.37572 67.736 5.28518 67.7911 6.23461C67.8459 7.18382 67.516 7.99764 67.516 7.99764H68.0108C68.3406 5.10452 68.5606 3.83884 68.3957 3.61269C67.461 2.6182 66.5265 1.84965 62.8978 1.8046V1.8046ZM80.3265 37.426C80.3265 37.426 79.2819 40.1835 77.2477 41.1327C76.8077 40.9521 76.8628 40.6809 76.4779 40.2739C76.3677 40.1385 75.9828 40.0477 75.8182 39.9123C75.6532 39.7767 75.7083 39.5506 75.4333 39.3699C75.2133 39.189 75.0483 39.3246 74.8283 39.189C74.6086 39.0084 74.5533 38.7822 74.3886 38.6469C74.2785 38.5563 73.8388 38.5113 73.7289 38.4207C73.4539 38.1946 71.0351 37.7878 71.1449 37.3357C71.3646 36.6574 71.8046 36.1603 71.8046 36.1603C71.8046 36.1603 72.8492 34.8946 73.8936 34.9397C74.9382 34.985 75.928 35.1658 76.4779 34.759C77.0828 34.3067 80.4917 35.9794 80.3265 37.426Z" fill="#010101"/>
<path d="M73.1791 17.4456C73.1791 17.4456 76.6428 16.7673 79.0071 18.6209C81.3714 20.5196 81.2062 22.8701 80.4917 24.3166C81.0963 24.9043 82.196 26.5315 81.3714 28.4754C85 31.0068 83.4055 34.8946 80.1618 37.4713C80.1618 37.4713 79.392 35.1206 76.3132 34.985C76.4231 34.081 73.4541 33.3575 74.8286 31.0068C72.7394 30.6 72.7944 29.4246 72.4646 27.9783C72.1895 26.5315 73.1791 17.4456 73.1791 17.4456V17.4456Z" fill="#010101"/>
<path d="M71.9145 18.7112C71.9145 18.7112 75.928 17.0388 78.2923 18.9374C80.6564 20.836 79.9964 22.9153 79.2819 24.3619C79.8865 24.9494 81.3161 26.6223 80.4364 28.611C80.2714 29.0631 79.0619 29.0631 78.1819 30.2385C80.381 29.1985 81.7558 29.4699 82.2505 30.7806C83.0204 32.8149 81.3158 35.2559 79.8315 36.6122C79.8315 36.5669 79.7764 36.5216 79.7764 36.4766C79.5567 37.1548 79.2816 38.4655 77.6324 39.9121C76.8075 40.6354 76.1478 40.5451 75.213 40.3642C74.1136 40.138 73.7287 39.731 72.1893 39.0532C71.3096 38.6464 71.8044 38.1491 71.8044 37.7423C71.8044 37.6519 71.9142 37.5161 72.0794 37.3354C72.1893 37.1093 72.5191 36.748 73.0139 36.341C73.0139 36.341 73.7287 35.5274 74.7736 35.5724C75.8182 35.6177 76.9176 35.437 77.1927 35.2109C77.1927 33.6287 74.9936 33.5834 75.7631 30.8712C75.8182 30.7356 76.0932 30.5094 76.9727 30.4191C75.653 30.193 75.0484 30.1477 74.1136 29.4246C73.4539 28.9275 72.9591 28.2946 72.7939 27.4809C72.4643 26.0797 71.9145 18.7112 71.9145 18.7112V18.7112Z" fill="#F0EFEF"/>
<path d="M60.3136 15.8634C59.9837 15.5017 58.2794 13.6936 55.0354 12.9703C54.1006 12.7441 53.496 13.3771 52.5615 13.8292C52.2865 13.6936 51.0769 13.2415 50.4172 13.5577C49.7575 13.874 49.3178 14.1907 48.6578 14.4166C48.3277 14.281 47.4483 14.281 46.7335 14.507C46.0188 14.6878 44.9191 15.0946 43.8745 16.27C43.2148 18.2139 55.5302 16.7671 55.5302 16.7671L60.3136 15.8634Z" fill="#010101"/>
<path d="M60.4237 15.8634C58.664 15.366 58.9391 13.6936 55.0354 13.4224C54.2656 13.3771 53.7708 13.8742 53.221 14.1907C53.496 14.4168 53.7708 14.7784 53.9357 15.1399C53.4409 14.688 52.5613 14.1001 51.6813 13.9645C50.8567 13.8292 50.3068 14.3263 49.4271 14.688C49.5918 14.8234 49.757 15.0496 49.9767 15.321C49.2069 14.9142 48.6573 14.7786 47.6127 15.0948C46.8979 15.2755 45.5234 15.7728 44.4788 16.9935C43.8191 18.9374 55.585 16.7673 55.585 16.7673L60.4237 15.8634Z" fill="#8AC640"/>
<path d="M70.76 16.5867C70.76 16.5867 70.76 16.0893 70.7049 15.6375C70.7049 15.5471 70.2652 15.321 70.2652 15.2307L70.1554 15.1401C70.1554 15.1401 71.0351 14.7333 71.6948 14.9595C72.4093 15.1401 72.7942 15.9087 72.7942 15.9087C74.0588 15.5471 74.1686 15.954 74.7735 16.4964C76.0932 16.2702 76.2579 16.677 77.0828 17.6717C77.0828 17.6717 76.0932 17.5361 74.1689 17.8071C72.2994 18.033 70.76 16.5414 70.76 16.5867V16.5867Z" fill="#010101"/>
<path d="M70.54 16.3605C70.54 16.3605 70.8699 16.1344 70.7597 16.0891C71.3644 15.8179 72.1893 15.5017 72.5742 16.3605C73.8388 15.9988 74.0037 16.4961 74.6084 17.0388C76.1477 16.4511 76.2576 17.1741 76.3677 17.4906C75.873 17.4906 75.1585 17.5359 74.1686 17.6262C72.2994 17.8524 70.4849 16.3153 70.54 16.3605Z" fill="#8AC640"/>
<path d="M51.8468 15.2305C51.8468 15.2305 54.9806 16.1344 57.6197 15.9988C60.2588 15.8181 64.7671 15.6373 67.1862 16.8126C67.1862 16.8126 69.6603 16.0891 71.9696 16.5865C74.2791 17.0836 78.5123 20.3385 77.248 23.774C77.1379 24.0001 76.4231 24.3617 75.5985 24.5878C75.5985 24.5878 76.0384 26.1247 75.2686 27.3904C74.4988 28.611 72.7945 30.9618 72.7394 34.2164C72.6846 34.7588 72.5747 35.8889 72.4646 36.4313C68.176 36.2959 61.5785 34.9847 55.0908 35.0753C55.1456 34.4878 55.2006 34.1261 55.2557 33.5384H55.4203C55.0905 32.0466 54.9806 31.278 54.6505 30.1479C52.5613 29.0631 50.3619 27.7974 48.4929 25.4014C46.6785 23.0054 51.8468 15.2305 51.8468 15.2305V15.2305ZM73.0692 39.6411C73.0692 39.6411 76.4781 49.6767 72.4646 53.8808C72.4646 53.8808 73.0692 55.8245 71.6948 57.904C71.4748 58.8079 71.1997 59.6218 71.0351 60.5257C70.3203 64.2777 69.1105 65.8599 68.7806 71.872L65.4816 71.827C65.4816 71.827 65.0967 67.4873 63.9422 65.1819C63.2828 63.8711 60.6982 62.1079 60.8086 60.3451C60.9185 58.9888 61.2483 57.8587 64.0526 56.0504C64.2723 53.4287 61.0834 50.9422 61.5785 41.178L73.0692 39.6411Z" fill="#010101"/>
<path d="M72.0797 39.2341C72.9594 43.845 74.9936 50.671 71.3099 54.016C71.5272 54.8642 71.5458 55.7387 71.3647 56.5926C71.2548 57.135 71.0348 57.7227 70.76 58.3554C70.2102 59.4405 69.9902 61.0226 69.8253 61.9718C69.1105 65.7238 69.1105 65.9049 68.7806 71.9171L65.4816 71.8718C65.4816 71.8718 65.0967 67.5321 63.9422 65.2269C63.2828 63.916 61.908 62.7859 61.7982 61.0228C61.6883 59.6668 62.8428 56.9546 65.592 57.0449C65.4271 51.5751 62.348 52.6599 61.5234 41.2683L72.0797 39.2341ZM51.8468 15.2305C51.8468 15.2305 53.0563 15.5469 54.3757 15.6373C55.6954 15.7276 57.1249 15.6373 58.3893 15.592C61.0283 15.4113 64.7671 15.1852 67.2412 16.3605C67.2412 16.3605 68.6157 15.9988 70.1003 16.0891C70.76 16.1344 71.42 16.5865 72.1896 16.7673C74.6086 17.2645 76.9179 20.5644 75.873 23.5481C75.7631 23.7742 74.9933 23.5481 74.1136 23.7742C74.2782 24.4072 74.3886 25.8537 73.5087 27.3906C72.5742 28.9277 71.3647 30.9167 71.5844 34.714C65.8114 34.4878 63.2274 34.1716 57.5093 33.9454C57.0145 32.2727 56.6844 30.6002 56.6296 29.7413C57.3994 29.4249 57.8389 29.1539 58.4441 28.6113C56.7948 28.8374 56.1348 28.7469 55.145 28.2948C54.1555 27.8427 52.3961 26.3961 51.5164 25.4469C51.4065 25.3564 50.8019 26.848 49.4274 26.8935C48.9324 26.3058 51.0216 24.6331 50.6367 24.0004C49.2625 21.6947 51.8468 15.2305 51.8468 15.2305V15.2305Z" fill="#F0EFEF"/>
<path d="M72.5191 35.4821C72.5191 35.4821 72.629 37.1095 72.629 37.5163C72.629 37.9684 73.069 39.3244 73.1238 39.9574C72.5191 40.8163 69.88 42.7602 65.0967 43.4835C60.3684 44.2971 54.1006 38.1946 54.1006 38.1946C54.2656 37.6069 54.8154 35.8889 55.2003 34.985C55.2554 34.8946 55.3653 34.6685 55.3653 34.5782C55.8603 33.9905 72.5191 35.4821 72.5191 35.4821V35.4821Z" fill="#010101"/>
<path d="M71.3099 35.6179C71.3099 36.748 71.5296 37.5618 71.6948 38.2851C71.9696 39.5961 72.4093 40.455 72.4093 41.3138C72.4093 43.9355 68.2308 43.4835 64.7118 43.574C59.9835 44.3878 55.9699 38.2851 55.9699 38.2851C56.2998 37.2454 56.5197 36.0702 57.0145 35.0755C57.0693 34.5331 57.1794 33.8551 57.2342 33.5386C63.9419 33.5386 68.6702 33.8551 71.4195 34.0808C71.5296 34.5782 71.4197 35.437 71.3099 35.6179Z" fill="#F0EFEF"/>
<path d="M66.0314 41.4492C66.0314 41.4492 63.1175 36.115 54.3754 37.6974C52.2865 42.5342 49.4822 48.0946 51.2966 54.1067C49.4822 56.141 47.3929 57.2713 47.3929 61.0231C47.3929 64.7751 47.6129 65.408 47.6129 65.408L54.0456 65.6794C54.0456 65.6794 56.1348 63.4645 56.9594 61.0686C57.1794 60.3903 57.3994 59.1699 57.2345 57.7686C57.4542 57.4974 58.389 56.8647 58.4991 55.6441C58.4991 55.6441 61.6329 54.288 63.4474 50.9881C65.152 48.004 64.712 45.4274 66.0314 41.4492Z" fill="#010101"/>
<path d="M66.0314 41.4492C65.8668 40.9521 63.6674 36.07 55.5302 37.5163C50.7471 48.004 52.5065 52.3437 53.221 54.2421C49.977 57.6324 48.4926 58.3557 49.1526 65.2269H53.4412C55.4203 62.6503 55.8603 61.7009 55.9702 58.3106C55.9702 58.175 55.3655 58.5818 54.9255 59.0339C55.2557 57.6326 56.1902 57.3614 56.9049 56.5025C57.2348 56.1408 57.5096 55.5984 57.5096 54.8751C61.3582 52.7505 62.7877 50.0833 63.6123 47.3258C64.2723 45.4274 65.0419 42.3081 66.0314 41.4492V41.4492Z" fill="#F0EFEF"/>
<path d="M52.4514 34.1713C52.4514 34.1713 53.936 34.2164 55.2557 34.5781C56.5203 34.9397 56.5203 35.1656 57.0151 35.6179C57.5099 36.0702 58.7194 36.748 58.4997 37.426C58.3896 37.7877 58.1148 37.8781 57.7298 38.1945C57.5649 38.3302 56.3551 39.415 56.0803 39.5506C55.9154 39.6409 55.6954 39.7767 55.5305 39.867L54.7059 40.3191C54.156 40.5453 53.7711 40.6809 53.1665 40.6356C53.1665 40.6356 51.792 40.5903 50.912 39.822C50.912 39.822 50.8022 39.4602 51.0222 39.2796C51.0222 39.2796 49.8674 38.4658 49.5376 37.9233C49.2074 37.3812 49.2075 36.6126 49.4277 36.2058C49.5376 35.7986 51.6816 34.6685 52.4514 34.1713V34.1713ZM53.8262 78.1556L53.6612 79.2859C53.6612 79.2859 53.1665 79.7831 49.4828 79.738C45.744 79.6928 44.7545 78.7435 44.4246 78.2462L44.2049 77.0708C44.2049 77.0708 44.9197 76.2119 45.0846 76.2119C46.2941 76.3023 50.4178 77.6585 53.2769 78.02C53.5511 78.02 53.6059 78.1104 53.8262 78.1556ZM61.7982 75.8502C61.7982 76.3473 61.7431 76.3473 61.7431 76.8447C62.4028 77.2515 64.0526 77.4776 67.1862 77.4321C71.7496 77.3418 75.9831 78.5624 81.1511 77.8389L81.2062 77.0253L80.7114 76.9803L62.4028 75.7596L61.7982 75.8502Z" fill="#010101"/>
<path d="M65.8117 77.4324H67.1862C70.1554 77.342 72.9594 77.8844 75.9831 78.02C77.5776 77.9748 79.557 77.6583 79.392 76.7091L63.7776 75.6241C62.8428 76.4829 63.5573 77.2062 65.8117 77.4324V77.4324ZM47.888 58.4011C48.3828 58.6723 51.7367 60.2998 57.1797 60.0736C57.0696 60.9325 57.1247 62.6052 54.7056 65.5434C53.4961 66.99 52.4512 69.5216 52.2314 72.7312C52.2865 73.4544 52.7813 74.0872 52.1216 75.0366C52.3413 75.6241 53.221 76.7994 53.661 77.5227C54.1007 78.2462 54.3207 79.0598 51.4065 79.1051C48.4376 79.1501 43.6542 78.8789 44.3142 76.9805C44.6443 75.986 45.5788 74.9463 45.689 74.5392C45.7988 74.1324 45.7988 72.912 46.7333 72.0982C47.5582 69.838 47.2831 67.6682 47.1185 65.6339C46.8434 63.5092 46.7884 60.1189 47.888 58.4011V58.4011ZM53.0013 21.5591C56.905 17.2645 53.6059 13.8292 47.3385 14.8687C44.8093 15.2755 42.2803 16.7223 42.1151 19.344C41.2905 19.4343 39.4212 19.5246 38.4865 22.3274C37.772 24.4973 37.3871 24.9041 36.1222 25.9889C35.2976 26.7574 36.1773 28.3396 36.7819 29.4699C38.8163 33.3575 45.084 33.719 49.3176 36.6574C50.7471 36.341 52.2314 35.0302 52.6714 34.1713C49.0976 30.6903 49.8672 29.3343 48.4376 27.5262C49.9773 27.0739 53.4961 25.3111 53.0013 21.5591Z" fill="#010101"/>
<path d="M52.2314 21.2879C52.4511 21.0165 52.836 20.429 53.0012 20.2029C53.0563 20.1576 53.6609 21.0165 53.716 20.9714C55.2003 18.9822 55.5852 16.0891 53.8807 15.8179C53.4957 15.7726 52.7812 15.6373 52.1763 15.4562C51.0769 15.1397 50.0874 15.1397 48.3277 15.4111C45.9086 15.7726 43.4895 17.2192 43.4895 19.2987C43.4895 19.4343 45.1936 19.8411 45.6886 21.5138C44.8637 20.5644 43.4342 19.5246 41.7299 20.4288C39.9154 21.378 40.8502 23.5478 38.4311 25.808C37.6062 26.5766 37.7163 27.4807 38.5958 29.2888C40.0253 32.1369 46.7881 33.6738 50.4717 36.386C51.3514 36.0695 51.9561 35.3463 52.3961 34.8039C49.9219 32.6793 48.9321 30.6901 48.2176 29.2435C47.3379 27.5711 46.3481 26.6218 44.4238 25.3557C45.4136 25.6722 46.1834 25.9887 46.6229 26.2599C47.1176 26.5311 47.8324 26.5763 48.4924 26.3955C50.8569 25.7179 52.1215 23.0054 52.2314 21.2879Z" fill="#F0EFEF"/>
<path d="M76.148 22.0112C75.9831 23.7289 74.4437 22.8701 73.6191 22.5536C71.9696 21.9659 70.32 21.5591 68.3957 21.5591C66.4714 21.5591 63.9973 21.6947 61.8532 22.1468C58.8843 22.8248 58.0043 22.7797 56.6849 22.2371C55.3655 21.6494 53.0566 20.2029 53.0566 20.2029C53.0566 20.2029 53.0015 20.6549 53.5514 21.2426C54.2659 21.9659 55.8606 22.8701 58.0046 23.4575C59.0492 23.7289 59.8741 23.5478 60.8089 23.3672C65.7021 22.3727 70.8702 22.1918 75.2135 24.3617C75.4335 24.452 76.2034 24.1808 76.5332 23.774C76.9727 23.1865 76.148 22.0112 76.148 22.0112V22.0112Z" fill="#010101"/>
<path d="M51.132 39.2341C51.5717 39.4603 52.1216 39.5959 52.7262 40.0027C52.7262 40.0027 52.2314 40.0027 52.0117 39.822C51.7367 39.6864 51.1868 39.2796 51.132 39.2341V39.2341Z" fill="#0A1825"/>
<path d="M67.0213 3.38676C66.8563 2.97996 65.6465 2.25645 62.8428 2.25645C59.8188 2.25645 58.9391 3.02501 58.8843 3.43181C58.8843 3.56741 58.6643 5.0142 58.6093 5.60166C58.6093 5.60166 58.6093 6.32494 58.664 7.40975C58.7191 8.13303 58.9391 8.53983 59.049 9.48926C59.1588 10.4835 59.4889 11.1165 60.0936 11.9303C60.3686 12.0657 60.5884 12.2015 60.8634 12.2468C61.9631 12.4274 63.8874 12.4727 64.932 12.2468C65.5367 12.1112 66.3065 11.2523 66.4714 10.4837C66.6911 9.53454 66.9111 8.85631 66.9662 8.26885C67.076 7.68139 67.1311 6.37021 67.1859 6.00846C67.3511 5.0142 67.0761 3.47709 67.0213 3.38676V3.38676Z" fill="#F0EFEF"/>
<path d="M61.2483 59.26C61.2483 59.26 64.1624 60.2998 71.3649 59.3956C71.3649 59.3956 69.3307 67.8038 70.2655 72.0077C70.2655 72.0077 71.2 73.0927 78.1276 75.172C78.1276 75.172 81.2064 75.8049 81.0966 77.0708C81.0966 77.0708 81.2064 77.342 77.4679 77.2515C73.7295 77.1609 70.2104 76.6185 67.7363 76.6185C65.2621 76.6185 62.623 76.7089 62.1833 76.1214C61.6886 75.579 62.2932 74.1775 63.008 73.3637C63.7781 72.505 63.5578 71.8718 63.503 70.3352C63.3375 66.312 59.5988 62.1531 61.2483 59.26V59.26Z" fill="#010101"/>
<path d="M60.6434 60.0286C60.2585 60.4807 60.6982 62.1982 61.2481 63.8709C61.7979 65.5434 63.0077 66.5381 63.2825 69.2954C63.5573 72.0076 63.6123 72.3694 62.6776 73.9513C61.7428 75.5333 61.468 76.9801 64.7118 77.0253C67.9555 77.0706 69.7151 76.9801 73.0139 77.3871C76.3129 77.7939 77.4674 77.9295 79.2819 77.7036C81.0963 77.4776 81.481 76.9801 80.7114 76.5282C79.9416 76.0761 76.7527 75.579 75.3782 74.6746C74.0585 73.861 70.32 72.5048 70.2652 72.1432C70.1003 70.9226 70.0452 66.4926 70.32 65.046C70.5951 63.5993 70.9797 61.52 71.0899 60.9776C71.2 60.4352 71.7496 59.8925 70.8148 60.0734C69.8803 60.2541 66.3615 60.6611 63.7225 60.5255C61.0834 60.3901 60.8086 59.8928 60.6434 60.0286V60.0286Z" fill="#8AC640"/>
<path opacity="0.3" d="M62.5129 73.9968C63.4474 74.3584 64.8221 74.6298 65.8668 74.6298C65.8668 74.6298 65.4816 76.1216 66.0865 77.0256C66.6911 77.9297 61.688 77.3873 61.688 77.3873L61.4683 74.1777L62.5129 73.9968ZM77.0828 77.8845C77.9625 77.6583 78.5674 76.8447 77.8526 76.0764C77.0828 75.3078 76.4231 75.1722 77.4126 75.1271C78.4024 75.0819 82.0311 76.89 82.0311 76.89L80.1616 78.2913L77.0828 77.8845ZM60.4785 61.7914C61.7431 62.1532 63.6674 62.2435 65.3169 62.1982C66.9662 62.1532 69.4403 61.9721 71.0351 61.5202C72.6292 61.0681 71.9695 62.0173 71.9695 62.0173L71.0899 62.6956C71.0899 62.6956 69.0006 63.3736 65.592 63.3285C61.5784 63.2832 60.3686 62.9217 60.3686 62.9217L60.4785 61.7914ZM60.5883 64.0518C61.8532 64.4135 63.7773 64.5039 65.4268 64.4586C67.076 64.4135 69.2754 64.4135 70.8699 63.9162C71.5296 63.7355 71.1449 64.5039 71.1449 64.5039L70.8699 64.9107C70.8699 64.9107 68.7256 65.5436 65.3717 65.4981C61.3582 65.4531 60.6434 65.1817 60.6434 65.1817L60.5883 64.0518Z" fill="#010101"/>
<path d="M56.9597 32.3633C56.9597 32.6797 61.2483 34.4426 63.6123 34.8043C65.9766 35.1658 70.9249 34.8043 71.6945 34.6687L71.5844 35.3017C71.5844 35.3017 65.7016 36.0249 61.1933 35.0305C56.6847 34.036 57.1797 33.8098 57.1797 33.8098L56.9597 32.3633Z" fill="#010101"/>
<path d="M47.7779 70.9228C48.4376 71.1943 50.8019 71.6914 52.3413 71.4202C52.561 71.3749 52.3413 68.3009 52.9462 66.8996C53.8259 64.9557 55.2554 63.3736 55.9148 59.9383C53.6056 59.7574 50.9668 59.26 49.5921 58.8983C47.8329 63.3285 48.4379 67.1256 47.7779 70.9228V70.9228ZM51.4618 73.7709C51.8468 73.8612 52.1215 74.2228 52.2317 73.9971C52.4514 73.59 51.8468 72.8217 51.7917 72.2793V72.234C51.2969 71.8725 47.9431 71.8272 48.1631 72.0079C47.7782 72.5956 47.1735 72.5052 46.9538 73.6806C46.8439 74.268 47.7236 73.7709 48.548 73.7256C47.0637 74.5392 45.3593 75.5792 45.0843 76.4832C44.7544 77.7488 45.3043 78.1106 46.9538 78.7888C48.3833 79.06 50.0876 79.1053 51.407 79.06C52.8916 78.8339 53.1667 78.2464 52.7267 77.4326C52.0665 76.212 51.6268 74.6298 51.4618 73.7709V73.7709Z" fill="#F0EFEF"/>
<path d="M52.0665 15.0496C53.8809 15.9085 56.4101 15.6825 57.3446 15.6373C57.5646 15.6373 59.764 15.3208 59.8738 15.3658C60.0935 15.4111 60.0935 15.5467 60.0935 15.5467C60.0935 15.5467 59.2689 15.9082 57.3997 15.9986C55.6403 16.0889 53.5511 15.9986 52.3966 15.5467C51.0218 15.0496 52.0665 15.0496 52.0665 15.0496ZM70.76 15.9085C71.0898 16.0891 73.2341 16.7673 74.1689 17.5809C74.9935 18.3045 74.5538 18.2592 74.3886 18.0783C74.1689 17.8521 72.4643 16.9029 71.8046 16.677C71.1449 16.4511 70.32 16.0441 70.32 15.9537C70.32 15.8634 70.76 15.9085 70.76 15.9085V15.9085Z" fill="#010101"/>
<path d="M51.7914 34.6685C53.3859 34.5782 55.0354 34.8946 56.08 35.7986C56.6298 36.2507 57.5095 36.7478 57.3997 37.1999C57.3997 37.3355 57.0696 37.6972 56.795 37.9684C56.6301 38.1491 56.1353 38.5559 55.9701 38.6917C55.7504 38.8273 54.9806 39.3247 54.8157 39.415C54.6507 39.5055 54.4307 39.7317 54.2658 39.7767C53.7163 40.0029 53.1113 39.822 52.5615 39.5961C52.0119 39.3699 52.6716 39.3247 52.0667 38.9631C50.5824 38.1042 49.7575 37.5163 50.3624 35.8439C50.4172 35.5274 51.0218 35.1656 51.7914 34.6685V34.6685Z" fill="#F0EFEF"/>
<path opacity="0.4" d="M37.7717 24.3166C32.8234 25.9441 20.2326 31.0976 16.6591 32.6797C19.628 34.2166 21.0025 37.9234 21.4424 41.6754C21.4972 42.0371 21.5523 42.3536 21.6074 42.7151C21.6622 43.0316 21.7172 43.2575 21.772 43.3933C21.772 43.4386 21.772 43.5289 21.8271 43.574C25.0711 36.2961 36.6717 28.6113 37.1117 28.0236C37.3314 27.7524 36.8366 26.577 37.6065 25.4471C38.5963 24.0001 40.5209 23.3672 37.7717 24.3166V24.3166ZM49.5375 58.4464C52.0665 54.2876 52.1215 50.3094 52.0665 45.6533C52.0665 43.7094 53.7708 40.9519 52.8914 41.7204C49.5923 44.7489 41.2904 50.4451 35.2975 50.7613C43.7095 50.5354 47.0083 54.0162 49.5375 58.4464Z" fill="#010101"/>
<path d="M11.8206 36.5218C14.9545 34.6685 31.1738 27.5715 35.0775 26.5768C38.9809 25.537 37.7714 24.3164 37.7714 24.3164C37.7714 24.3164 21.9369 29.9218 12.4803 34.7588" fill="#010101"/>
<path opacity="0.4" d="M58.0043 23.4577C56.7397 23.0509 55.7502 24.2716 56.08 25.4469C56.4101 26.6223 59.3791 27.933 59.2139 32.2277C59.104 35.7537 58.1692 37.2001 58.1692 37.2001L56.08 35.0304C56.08 35.0304 55.7502 30.1481 55.0354 29.4249C54.3209 28.7016 52.0665 27.3906 51.1868 26.7126C50.3071 26.0344 52.1763 25.1304 52.0665 23.8645C51.9566 22.6441 53.0012 20.2031 53.0012 20.2031L58.0043 23.4577ZM65.6468 42.7149C65.5369 46.1051 66.4717 51.1231 66.8563 53.519C67.2412 55.9148 67.736 56.0957 66.8563 57.1807C65.9766 58.2205 64.8221 59.9382 64.8221 59.9382L61.0283 59.6668C61.0283 59.6668 64.0523 56.5025 64.217 55.9148C64.3819 55.3274 62.6776 50.8521 62.6776 50.8521L65.6468 42.7149ZM58.3344 11.0716C59.1043 12.4727 60.0388 13.1057 61.5231 13.5127C62.4028 13.7839 65.8665 14.1456 67.2412 12.8797C67.8459 12.292 67.4609 10.7099 67.4609 10.7099L64.3271 12.7892L60.0936 12.1564L59.5988 11.1167L58.3344 11.0716Z" fill="#010101"/>
<path d="M58.664 14.1907C60.0936 14.9592 63.6674 15.6825 64.657 15.8181C65.6465 15.9988 67.241 14.9592 68.0108 14.688C68.8357 14.3716 70.2652 14.1907 71.9145 15.4113C72.0794 15.5469 71.5296 16.1346 71.5296 16.1346C71.4745 16.0893 71.1447 16.0893 70.7047 15.9085C70.265 15.7278 69.88 15.592 69.2203 15.6372C66.4711 15.9085 66.0314 16.677 63.6123 16.2247C61.1933 15.7724 60.5884 15.4111 58.2243 15.5014" fill="#8AC640"/>
<path d="M58.664 14.1907C60.0936 14.9592 63.6674 15.6825 64.657 15.8181C65.6465 15.9988 67.241 14.9592 68.0108 14.688C68.8357 14.3716 70.2652 14.1907 71.9145 15.4113C72.0794 15.5469 71.5296 16.1346 71.5296 16.1346C71.4745 16.0893 71.1447 16.0893 70.7047 15.9085C70.265 15.7278 69.88 15.592 69.2203 15.6372C66.4711 15.9085 66.0314 16.677 63.6123 16.2247C61.1933 15.7724 60.5884 15.4111 58.2243 15.5014" stroke="#010101" stroke-width="10.8638" stroke-miterlimit="10" stroke-linejoin="round"/>
<path d="M58.1693 14.3263C59.9837 14.9592 63.5025 15.6373 64.492 15.8181C65.4816 15.999 67.076 15.1852 67.8459 14.7784C69.2206 14.0551 70.9797 14.6428 71.8046 15.4113C72.3542 15.9085 72.5745 16.2249 72.5745 16.3605C72.5745 16.5412 71.9147 16.3605 71.9147 16.3605C71.5298 16.2249 71.0898 16.1799 70.7603 15.9988C70.3203 15.8181 69.8803 15.5469 69.2209 15.592C66.4717 15.8634 65.9218 16.6317 63.5578 16.1797C61.1938 15.7276 60.5889 15.3208 58.0599 15.4562" fill="#8AC640"/>
<path d="M49.6474 56.5476C49.5375 56.4572 49.7572 56.3669 49.6474 56.3669C48.9329 56.3669 47.9431 55.9148 47.3929 55.2819C45.0289 52.4793 41.5649 50.6259 35.2972 50.7615C25.8954 50.9422 22.1567 47.7781 21.4422 41.7206C21.0572 38.4207 19.9576 35.2111 17.7034 33.4028L16.3837 34.081C18.9127 35.8891 19.7376 38.8275 20.2874 42.8507C21.1671 48.9082 27.105 51.711 34.0326 51.8013C41.2351 51.8916 43.8191 53.1123 46.513 56.0959C47.3927 57.0451 48.3825 57.3616 49.1521 57.4972L49.6474 56.5476Z" fill="#010101"/>
<path opacity="0.4" d="M75.1585 27.4809C75.3234 28.1589 75.7631 29.4699 76.6428 30.1026C77.028 30.4191 77.0828 30.5094 76.7529 30.5094C76.4228 30.5094 74.0037 30.4191 74.0037 30.4191L73.344 29.4699L75.1585 27.4809Z" fill="#010101"/>
</svg>
