<svg width="50" height="55" viewBox="0 0 85 65" fill="none" xmlns="http://www.w3.org/2000/svg">
<path d="M15.6772 55.252L9.70859 4.0625H75.2914L69.3148 55.2439L42.4601 60.9375L15.6772 55.252Z" fill="#E44F26"/>
<path d="M42.5 56.5866L64.2016 51.9858L69.3069 8.2489H42.5V56.5866Z" fill="#F1662A"/>
<path d="M42.5 27.233H31.6359L30.8869 20.8041H42.5V14.5255H42.4708H21.9141L22.1106 16.2114L24.1267 33.5116H42.5V27.233Z" fill="#EBEBEB"/>
<path d="M42.5 43.5378L42.4628 43.5459L33.32 41.6589L32.7356 36.6519H28.2917H24.4933L25.6434 46.5075L42.4628 50.0784L42.5 50.0703V43.5378Z" fill="#EBEBEB"/>
<path d="M42.4708 27.233V33.5116H52.5805L51.6295 41.6548L42.4708 43.5439V50.0764L59.3034 46.5075L59.4256 45.4472L61.3541 28.9189L61.5559 27.233H59.3433H42.4708Z" fill="white"/>
<path d="M42.4708 14.5255V18.4255V20.7898V20.8041H62.2758H62.3023L62.467 19.3944L62.8416 16.2114L63.0381 14.5255H42.4708Z" fill="white"/>
</svg>
