<svg width="45" height="45" viewBox="0 0 75 69" fill="none" xmlns="http://www.w3.org/2000/svg">
<path d="M70.3125 4.3125H4.6875V64.6875H70.3125V4.3125Z" fill="#F5DE19"/>
<path d="M48.7711 51.4805C49.3302 52.5254 50.199 53.4037 51.2771 54.0141C52.3553 54.6245 53.599 54.9421 54.8648 54.9305C57.4195 54.9305 59.0531 53.7553 59.0531 52.1273C59.0531 50.1867 57.375 49.4924 54.5625 48.3604L53.0203 47.7523C48.5672 46.0079 45.6141 43.8236 45.6141 39.2049C45.6141 34.9507 49.1297 31.7098 54.6445 31.7098C56.4298 31.5912 58.2135 31.9588 59.7731 32.7667C61.3328 33.5747 62.5993 34.7872 63.4148 36.253L58.5938 39.0885C58.2797 38.3617 57.733 37.7398 57.026 37.3055C56.319 36.8711 55.4852 36.6447 54.6352 36.6563C54.2643 36.6221 53.8897 36.6594 53.5354 36.7658C53.1811 36.8721 52.8547 37.0452 52.5771 37.2741C52.2995 37.5029 52.0767 37.7824 51.923 38.0948C51.7693 38.4072 51.6881 38.7456 51.6844 39.0885C51.6844 40.7898 52.8305 41.4798 55.4766 42.5385L57.0187 43.1466C62.2594 45.2144 65.2219 47.3211 65.2219 52.0583C65.2219 57.1665 60.8602 59.9653 55.0031 59.9653C52.721 60.0991 50.4456 59.6224 48.4514 58.5928C46.4573 57.5632 44.8296 56.0247 43.7648 54.1628L48.7711 51.4805ZM26.9859 51.9721C27.9539 53.5526 28.8352 54.8895 30.9539 54.8895C32.9789 54.8895 34.2586 54.1607 34.2586 51.3252V32.0333H40.425V51.4007C40.425 57.2743 36.675 59.9481 31.2164 59.9481C29.2869 60.0451 27.3707 59.6027 25.7196 58.6791C24.0685 57.7554 22.7598 56.3938 21.9656 54.7731L26.9859 51.9721Z" fill="black"/>
</svg>
