<svg width="54" height="53" viewBox="0 0 54 53" fill="none" xmlns="http://www.w3.org/2000/svg">
<g clip-path="url(#clip0_1_10)">
<path d="M27 52.9995C41.9117 52.9995 54 41.135 54 26.4995C54 11.864 41.9117 -0.000499129 27 -0.000499129C12.0883 -0.000499129 0 11.864 0 26.4995C0 41.135 12.0883 52.9995 27 52.9995Z" fill="#007AB9"/>
<path d="M43.1322 28.6319V39.5573H36.6785V29.3641C36.6785 26.8047 35.7467 25.0569 33.41 25.0569C31.6267 25.0569 30.5674 26.2336 30.0996 27.373C29.9297 27.7802 29.8859 28.3456 29.8859 28.9167V39.5568H23.4316C23.4316 39.5568 23.5183 22.2929 23.4316 20.5059H29.8864V23.2056C29.8734 23.2268 29.8551 23.2476 29.8435 23.2679H29.8864V23.2056C30.744 21.9103 32.2736 20.0585 35.7029 20.0585C39.9489 20.0585 43.1322 22.7814 43.1322 28.6319ZM16.68 11.3227C14.4722 11.3227 13.0278 12.745 13.0278 14.6138C13.0278 16.4429 14.4304 17.9063 16.5952 17.9063H16.6371C18.8882 17.9063 20.2878 16.4429 20.2878 14.6138C20.2449 12.745 18.8882 11.3227 16.68 11.3227ZM13.4114 39.5573H19.8633V20.5059H13.4114V39.5573Z" fill="#F1F2F2"/>
</g>
<defs>
<clipPath id="clip0_1_10">
<rect width="54" height="53" fill="white"/>
</clipPath>
</defs>
</svg>
