<svg width="45" height="40" viewBox="0 0 76 67" fill="none" xmlns="http://www.w3.org/2000/svg">
<path d="M62.4873 22.9851C61.6988 22.7459 60.8819 22.5195 60.0407 22.3054C60.179 21.808 60.3059 21.317 60.4187 20.8344C62.2707 12.9092 61.0598 6.52471 56.925 4.42265C52.9602 2.40705 46.4762 4.50864 39.9276 9.53279C39.2979 10.0159 38.6664 10.5274 38.0352 11.0635C37.6146 10.7088 37.1947 10.366 36.7759 10.0382C29.9128 4.66606 23.0335 2.40216 18.9028 4.51031C14.9418 6.53175 13.7688 12.5338 15.4359 20.0445C15.5969 20.77 15.785 21.5108 15.9978 22.2641C15.0242 22.5077 14.0843 22.7674 13.185 23.0438C5.13871 25.5168 0 29.3928 0 33.4131C0 37.5654 5.51641 41.7301 13.8972 44.2554C14.5586 44.4547 15.2449 44.6431 15.9521 44.822C15.7225 45.6367 15.5229 46.435 15.3552 47.2137C13.7657 54.594 15.007 60.4543 18.9575 62.463C23.0379 64.5373 29.886 62.4051 36.5543 57.2665C37.0813 56.8603 37.6103 56.4295 38.1401 55.978C38.827 56.5611 39.5127 57.1129 40.1948 57.6305C46.6538 62.5305 53.0331 64.5091 56.9799 62.4948C61.0563 60.4144 62.3811 54.1191 60.6611 46.4598C60.5298 45.8748 60.3769 45.2772 60.2052 44.669C60.6861 44.5437 61.1583 44.4143 61.6186 44.2798C70.3313 41.7349 76 37.6208 76 33.4131C76 29.3782 70.6956 25.4762 62.4873 22.9851ZM60.5975 41.5629C60.182 41.6842 59.7556 41.8014 59.321 41.9151C58.3592 39.2307 57.0611 36.3762 55.4725 33.4271C56.9884 30.5481 58.2364 27.7302 59.1713 25.0632C59.9487 25.2615 60.7033 25.4707 61.4305 25.6914C68.4633 27.8258 72.7533 30.9815 72.7533 33.4131C72.7533 36.0032 68.1203 39.3655 60.5975 41.5629ZM57.4761 47.0157C58.2367 50.4025 58.3453 53.4646 57.8415 55.8584C57.3889 58.0093 56.4786 59.4434 55.353 60.0178C52.9579 61.24 47.836 59.6513 42.3122 55.4608C41.6789 54.9804 41.0411 54.4675 40.4012 53.9246C42.5427 51.8599 44.6829 49.4595 46.7718 46.7937C50.4458 46.5063 53.9169 46.0364 57.0647 45.3949C57.2198 45.9463 57.3575 46.487 57.4761 47.0157ZM25.9101 59.8066C23.5701 60.5351 21.7063 60.556 20.5797 59.9833C18.1824 58.7644 17.1858 54.0591 18.5453 47.7475C18.701 47.0246 18.8863 46.2821 19.0999 45.5232C22.2132 46.1301 25.6589 46.5668 29.3417 46.83C31.4447 49.4386 33.6467 51.8363 35.8658 53.9357C35.381 54.3483 34.8981 54.7412 34.4178 55.1113C31.4691 57.3836 28.5142 58.9957 25.9101 59.8066ZM14.9472 41.5471C11.2414 40.4304 8.181 38.9792 6.08323 37.3955C4.19825 35.9724 3.24656 34.5595 3.24656 33.4131C3.24656 30.9734 7.37243 27.8616 14.2537 25.7465C15.0886 25.4899 15.9626 25.248 16.8697 25.0208C17.8207 27.7481 19.0682 30.5994 20.5738 33.4828C19.0488 36.4089 17.7835 39.3057 16.8232 42.0649C16.1765 41.901 15.55 41.7286 14.9472 41.5471ZM18.6221 19.4949C17.1938 13.0599 18.1424 8.20555 20.5294 6.98744C23.072 5.68978 28.6943 7.53997 34.6201 12.1785C34.9988 12.475 35.3791 12.7853 35.7605 13.1064C33.5523 15.1966 31.3704 17.5763 29.2861 20.1695C25.7118 20.4616 22.2903 20.9307 19.1445 21.559C18.9468 20.8576 18.7716 20.1686 18.6221 19.4949ZM51.4051 26.6312C50.653 25.4861 49.881 24.368 49.094 23.2805C51.5188 23.5507 53.8421 23.9095 56.0239 24.3485C55.3689 26.1991 54.5525 28.1341 53.5914 30.1177C52.9021 28.9639 52.1729 27.8005 51.4051 26.6312ZM38.0363 15.1519C39.5338 16.5822 41.0335 18.1791 42.5086 19.9117C41.0221 19.8498 39.5173 19.8176 38 19.8176C36.4971 19.8176 35.0033 19.8491 33.5261 19.9099C35.0026 18.1934 36.5153 16.5986 38.0363 15.1519ZM24.5818 26.651C23.8306 27.7993 23.115 28.9564 22.4364 30.1156C21.491 28.1389 20.6821 26.1951 20.0214 24.3182C22.1898 23.8904 24.5021 23.5406 26.9116 23.2755C26.1134 24.373 25.335 25.4993 24.5818 26.6508V26.651ZM26.981 43.7549C24.4916 43.5101 22.1445 43.1783 19.9766 42.7623C20.6479 40.8519 21.4746 38.8666 22.4401 36.8473C23.1204 38.0057 23.8389 39.1632 24.5947 40.314H24.5948C25.3647 41.4865 26.1623 42.6349 26.981 43.7549ZM38.1261 51.8761C36.5873 50.4124 35.0524 48.7934 33.5534 47.0518C35.0086 47.1021 36.4922 47.1279 38 47.1279C39.5491 47.1279 41.0804 47.0971 42.5877 47.038C41.1078 48.8109 39.6135 50.4325 38.1261 51.8761ZM53.6224 36.7444C54.6382 38.7855 55.4945 40.7604 56.1745 42.6383C53.9709 43.0814 51.5918 43.4384 49.085 43.7036C49.874 42.6014 50.6528 41.4642 51.4181 40.2944C52.1923 39.1108 52.9274 37.9255 53.6224 36.7444ZM48.6057 38.8644C47.4177 40.6804 46.198 42.414 44.9598 44.0503C42.7046 44.1925 40.3747 44.2657 38 44.2657C35.6349 44.2657 33.3344 44.2009 31.119 44.0742C29.8309 42.4163 28.5847 40.6777 27.4043 38.8801H27.4045C26.2272 37.0874 25.1436 35.2795 24.1618 33.4818C25.1434 31.6799 26.2241 29.87 27.3947 28.0806L27.3944 28.0809C28.5681 26.2867 29.8033 24.5564 31.0795 22.909C33.3398 22.7584 35.6575 22.6798 37.9999 22.6798H38C40.3529 22.6798 42.6736 22.759 44.9332 22.9109C46.1899 24.5463 47.4168 26.2709 48.595 28.0654C49.7867 29.8801 50.8814 31.6779 51.8714 33.4411C50.8844 35.2347 49.7921 37.0506 48.6057 38.8644ZM55.3033 6.90229C57.8483 8.19613 58.838 13.4142 57.239 20.2567C57.137 20.6933 57.0221 21.138 56.8974 21.5887C53.7443 20.9473 50.3204 20.47 46.7356 20.1736C44.6473 17.5519 42.4833 15.1685 40.3111 13.1051C40.8951 12.6098 41.4783 12.1375 42.059 11.6919C47.6699 7.3872 52.914 5.68763 55.3033 6.90229ZM38 27.4302C41.748 27.4302 44.7865 30.1088 44.7865 33.4131C44.7865 36.7173 41.748 39.396 38 39.396C34.252 39.396 31.2135 36.7173 31.2135 33.4131C31.2135 30.1088 34.252 27.4302 38 27.4302Z" fill="#00D8FF"/>
</svg>
