<svg width="45" height="40" viewBox="0 0 78 66" fill="none" xmlns="http://www.w3.org/2000/svg">
<g clip-path="url(#clip0_2_35)">
<path d="M54.0458 45.3062C56.9242 45.054 59.1079 42.9544 59.0085 40.4345C58.9095 37.9149 56.4278 35.8991 53.4501 35.8991H53.2518C50.1744 35.9831 47.7924 38.1668 47.8917 40.7705C47.991 42.0304 48.5864 43.1222 49.4797 43.8781C46.105 49.5057 40.9436 53.6211 33.2015 57.0647C27.9408 59.4165 22.4817 60.2565 17.0226 59.6686C12.5559 59.1646 9.08182 57.485 6.89782 54.713C3.72175 50.5975 3.42408 46.1459 6.10411 41.6945C7.99012 38.5027 10.9675 36.151 12.8535 34.9751C12.4565 33.8833 11.8609 32.0355 11.5632 30.6918C-2.82933 39.5108 -1.34032 51.4375 3.02707 57.0647C6.30246 61.2645 12.9529 63.8681 20.298 63.8681C22.283 63.8681 24.2681 63.7001 26.2534 63.2803C38.9586 61.1805 48.5867 54.797 54.0458 45.3062V45.3062ZM71.5153 34.8913C63.9716 27.416 52.8547 23.3006 40.1496 23.3006H38.5616C37.6682 21.7888 35.7822 20.7807 33.6978 20.7807H33.4992C30.4224 20.8648 28.0404 23.0484 28.1394 25.6523C28.2387 28.1719 30.7201 30.1878 33.6978 30.1878H33.8962C36.0799 30.1037 37.9659 28.9279 38.7599 27.332H40.5466C48.0904 27.332 55.2368 29.1797 61.6889 32.7914C66.6516 35.5632 70.225 39.1749 72.21 43.5422C73.8974 47.0699 73.7981 50.5135 72.0114 53.4533C69.2323 57.9047 64.5672 60.3405 58.4132 60.3405C54.4428 60.3405 50.6711 59.3325 48.6857 58.5765C47.594 59.4165 45.6087 60.7602 44.219 61.6004C48.4874 63.2801 52.8548 64.2041 57.0235 64.2041C66.5523 64.2041 73.5997 59.7524 76.2797 55.301C79.1581 50.4294 78.9595 42.0304 71.5153 34.8913V34.8913ZM21.092 46.7337C21.1913 49.2535 23.6727 51.2691 26.6504 51.2691H26.8491C29.9261 51.1853 32.3081 49.0014 32.2088 46.3977C32.1098 43.8779 29.6281 41.8623 26.6504 41.8623H26.4521C26.2534 41.8623 25.9554 41.8623 25.7574 41.9461C21.6877 36.2348 20.0003 30.0197 20.596 23.3003C20.9927 18.2609 22.978 13.8933 26.4521 10.2816C29.3304 7.17389 34.8889 5.66208 38.6609 5.57829C49.182 5.4102 53.6485 16.4969 53.9464 20.9486C55.2368 21.2004 57.4205 21.7885 58.9095 22.2085C57.7182 8.60217 47.7924 1.54688 38.2639 1.54688C29.3304 1.54688 21.092 7.00631 17.8163 15.0694C13.2506 25.8202 16.2283 36.151 21.7867 44.2981C21.2906 44.8859 20.9927 45.8099 21.092 46.7339V46.7337Z" fill="#764ABC"/>
</g>
<defs>
<clipPath id="clip0_2_35">
<rect width="78" height="66" fill="white"/>
</clipPath>
</defs>
</svg>
