<svg width="45" height="40" viewBox="0 0 69 65" fill="none" xmlns="http://www.w3.org/2000/svg">
<g clip-path="url(#clip0_2_31)">
<path d="M34.5 0C53.5526 0 69 14.5519 69 32.5C69 50.4481 53.5526 65 34.5 65C15.4474 65 0 50.4481 0 32.5C0 14.5519 15.4474 0 34.5 0ZM27.6431 43.3279C28.1462 45.0748 28.0916 46.7079 27.5741 48.1813L27.3873 48.6687C27.3183 48.834 27.2377 48.9937 27.163 49.1454C26.7605 49.9308 26.2257 50.6621 25.5674 51.3392C23.5606 53.3948 20.7604 54.1748 19.5586 53.5194C18.2649 52.8098 18.9089 49.9037 21.2376 47.5881C23.7418 45.1019 27.3326 43.5012 27.3326 43.5012V43.4931L27.6431 43.3279V43.3279ZM56.1372 13.9127C54.579 8.13583 44.4159 6.23729 34.799 9.4575C29.0806 11.3723 22.885 14.3812 18.4316 18.3056C13.133 22.9667 12.2906 27.0292 12.6385 28.7273C13.8661 34.7154 22.5774 38.6317 26.1596 41.5377V41.554C25.1045 42.0415 17.3736 45.695 15.5624 49.4758C13.6218 53.4571 15.8642 56.3035 17.3305 56.6665C21.8586 57.8473 26.5161 55.6915 29.0174 52.2004C31.4324 48.7852 31.2196 44.3977 30.1789 42.2446C31.6049 41.879 33.2839 41.7165 35.4401 41.9629C41.4805 42.6129 42.688 46.1879 42.4264 47.6504C42.1676 49.1102 40.9228 49.9633 40.4886 50.2071C40.0574 50.4535 39.928 50.5321 39.9683 50.6973C40.0114 50.941 40.2299 50.941 40.572 50.9004C41.0464 50.8192 43.723 49.6817 43.8524 46.9165C43.9818 43.4227 40.4426 39.5254 34.1493 39.604C31.5618 39.6473 29.9201 39.8504 28.7586 40.2973C28.6724 40.1754 28.5832 40.0942 28.4567 40.0129C24.5755 36.0723 17.3736 33.3098 17.6755 28.0692C17.7617 26.1598 18.4949 21.125 31.4755 15.0313C42.1274 10.0317 50.6259 11.4156 52.0921 14.4625C54.1995 18.8067 47.5611 26.8938 36.478 28.0692C32.2517 28.516 30.0524 26.975 29.4889 26.4035C28.888 25.7942 28.8017 25.7535 28.5861 25.8781C28.2411 26.0406 28.4567 26.5688 28.5861 26.8938C28.9311 27.7063 30.268 29.1281 32.5996 29.8594C34.6236 30.4687 39.5859 30.8317 45.5371 28.6406C52.2186 26.2058 57.4367 19.4187 55.9274 13.7313L56.1372 13.9127V13.9127Z" fill="#E7289A"/>
</g>
<defs>
<clipPath id="clip0_2_31">
<rect width="69" height="65" fill="white"/>
</clipPath>
</defs>
</svg>
