<svg width="45" height="40" viewBox="0 0 123 108" fill="none" xmlns="http://www.w3.org/2000/svg">
<g clip-path="url(#clip0_2_33)">
<path d="M83.0968 30.429L82.7124 32.1885C82.1179 35.523 82.3331 36.477 83.9629 37.7145L85.5362 38.8575L83.9065 45.2385C82.9327 49.0455 81.7386 52.236 80.9801 53.2845C80.3292 54.189 79.5708 55.521 79.4068 56.2365C79.1351 57.0915 78.2126 57.951 76.8032 58.7115C75.5579 59.3325 73.1133 60.9975 71.381 62.334C69.9973 63.4275 69.044 64.098 68.5264 64.386L66.8351 65.5605C66.2919 66.3255 65.9844 66.942 65.8665 67.41C65.7486 67.8915 65.8153 68.211 65.9895 68.445C66.1586 68.67 66.4508 68.8275 66.8505 68.9265C67.3237 69.0239 67.8108 69.0588 68.2957 69.03C69.3928 68.9642 70.4787 68.7952 71.5348 68.526C71.8935 68.4405 72.1754 68.3595 72.4214 68.2875C72.8006 67.878 73.677 67.104 75.2299 65.7585C79.3504 62.19 80.9237 60.237 79.2991 60.7635C78.6995 60.9525 78.9711 60.4755 80.0012 59.5215C82.1742 57.663 83.4196 54.855 86.0231 46.0485C88.0834 39.096 88.0834 38.997 89.6004 38.997C90.3127 38.997 92.3269 39.105 92.3269 39.105V30.429H87.7041H83.0968ZM102.772 44.6715C102.444 44.6715 101.9 45.1035 101.577 45.5805C100.983 46.4355 101.685 46.9575 110.633 51.8625C115.948 54.819 120.232 57.339 120.125 57.5325C120.017 57.672 115.676 60.1515 110.475 63.009C101.034 68.148 100.983 68.1975 101.849 69.246C102.936 70.4835 101.849 70.911 114.103 64.197L123 59.1975V55.4355L113.073 50.0535C107.707 47.1015 103.043 44.721 102.772 44.6715ZM20.336 45.198C20.0644 45.198 15.4006 47.628 10.0347 50.5305L0 55.9125V59.6745L9.97837 65.151C15.5134 68.148 20.1771 70.6275 20.3924 70.6275C20.6076 70.6275 21.0433 70.1955 21.4789 69.6735C22.1298 68.769 21.5814 68.3865 12.4179 63.2925C3.69 58.482 2.7675 57.816 3.63875 57.294C4.182 56.961 8.3025 54.72 12.751 52.2945C22.8934 46.818 22.3501 47.196 21.5353 46.053C21.2124 45.5805 20.664 45.153 20.3411 45.198H20.336ZM64.8415 45.3015C63.345 45.2925 60.1265 47.295 50.4915 54.2025C50.0764 55.071 50.0405 55.6695 50.2301 56.0565C50.3531 56.322 50.5786 56.5065 50.8912 56.6415C51.1987 56.7765 51.5985 56.8575 52.0393 56.889C52.9156 56.9565 53.9509 56.835 54.7862 56.691L55.35 56.5785C55.543 56.3513 55.7963 56.169 56.088 56.0475C56.6825 55.7595 59.1784 53.7615 61.6743 51.6195C66.0664 47.7135 67.0965 45.9495 65.3079 45.378C65.1611 45.3267 65.0045 45.3008 64.8466 45.3015H64.8415ZM76.096 48.015C74.7789 48.0465 72.406 49.3875 68.3419 52.236C66.3021 53.6895 65.0106 54.4725 64.3187 54.6345L61.6332 56.4975C60.6236 58.1175 60.475 59.121 60.7415 59.6745C60.8082 59.811 60.905 59.9346 61.0264 60.0381C61.1478 60.1416 61.2914 60.223 61.4487 60.2775C61.8403 60.4133 62.2578 60.482 62.6787 60.48C63.6847 60.4706 64.6845 60.3419 65.6512 60.0975C66.1551 59.9788 66.6527 59.8407 67.1426 59.6835L67.2912 59.6295L67.5629 59.5035C68.0754 58.923 69.2541 57.8295 70.7301 56.5695C75.3939 52.6185 77.777 49.8105 77.2901 48.762C77.0697 48.2535 76.6905 47.997 76.096 48.015ZM63.673 52.875C63.2938 52.911 62.443 53.487 60.9106 54.666C58.6966 56.385 56.2828 57.375 55.4474 56.934C55.2532 56.9725 55.0585 57.0085 54.8631 57.042C54.0124 57.1905 52.9515 57.312 52.0034 57.2445C51.5566 57.2207 51.1188 57.1246 50.7119 56.961C50.3281 56.8069 50.0218 56.5348 49.8509 56.196C49.6613 55.791 49.6613 55.287 49.8765 54.6435L46.5452 57.0465L39.0064 62.523V71.4015L63.7089 54.315C63.7041 54.1279 63.7317 53.9413 63.7909 53.7615C63.9805 53.1585 63.9703 52.8525 63.673 52.8795V52.875ZM74.3023 55.7505C73.9281 55.7505 73.3029 56.214 72.3035 57.1455C70.9454 58.419 68.8082 59.652 67.6756 59.904L67.5014 59.985C67.3154 60.0524 67.1274 60.1154 66.9376 60.174C66.6301 60.264 66.2304 60.372 65.7691 60.48C64.8466 60.7005 63.6986 60.903 62.6736 60.8805C62.1904 60.88 61.7118 60.7974 61.2643 60.6375C60.8424 60.4848 60.5044 60.1945 60.3212 59.8275C60.024 59.202 60.1419 58.3245 60.7928 57.078L39.0012 72.1485V77.571H48.5747L68.88 63.567C69.4079 63.054 70.2022 62.352 71.2734 61.4745C74.1434 59.139 74.7943 58.3335 74.7943 57.141C74.7943 56.214 74.6764 55.746 74.3023 55.746V55.7505ZM79.1351 64.5255L77.3978 66.0465C76.424 66.8565 74.6866 67.8555 73.4976 68.283L73.2619 68.373L73.2465 68.3955L73.1952 68.4405C73.1491 68.472 73.1286 68.4765 73.0927 68.49C72.6181 68.6477 72.1359 68.7874 71.6475 68.9085C70.5616 69.186 69.4447 69.3595 68.3162 69.426C67.7827 69.456 67.2471 69.4151 66.7275 69.3045C66.2766 69.2173 65.8785 68.9865 65.6102 68.6565C65.3642 68.3235 65.2925 67.878 65.4309 67.329C65.5409 66.9381 65.7044 66.5604 65.9178 66.204L49.5331 77.571H71.3246L73.9281 74.952C77.5054 71.289 79.1351 68.67 79.1351 66.429V64.5255Z" fill="#A22C2C"/>
</g>
<defs>
<clipPath id="clip0_2_33">
<rect width="123" height="108" fill="white"/>
</clipPath>
</defs>
</svg>
